<svg xmlns="http://www.w3.org/2000/svg" width="20.027" height="25.619" viewBox="0 0 20.027 25.619">
  <g id="_001-water-drop" data-name="001-water-drop" transform="translate(0)">
    <g id="Group_43" data-name="Group 43" transform="translate(0 0)">
      <g id="Group_42" data-name="Group 42">
        <path id="Path_72" data-name="Path 72" d="M58.523,2.465C57.8,1.616,57.141.865,56.632.234c-.024-.048-.073-.073-.1-.1a.619.619,0,0,0-.873.1c-.509.63-1.164,1.382-1.891,2.231-3.2,3.71-7.637,8.85-7.637,13.141a9.967,9.967,0,0,0,2.934,7.08,10.069,10.069,0,0,0,7.08,2.934A10.016,10.016,0,0,0,66.161,15.606C66.161,11.314,61.724,6.174,58.523,2.465Zm3.831,19.323a8.765,8.765,0,0,1-14.984-6.183c0-3.831,4.267-8.777,7.346-12.341.509-.606.994-1.164,1.43-1.7.436.533.921,1.091,1.43,1.673,3.079,3.564,7.346,8.486,7.346,12.341A8.822,8.822,0,0,1,62.354,21.788Z" transform="translate(-46.134 0)" fill="#86a6f4"/>
      </g>
    </g>
    <g id="Group_45" data-name="Group 45" transform="translate(3.443 15.194)">
      <g id="Group_44" data-name="Group 44">
        <path id="Path_73" data-name="Path 73" d="M109.553,256.68a5.381,5.381,0,0,1-5.407-5.407.606.606,0,1,0-1.212,0,6.581,6.581,0,0,0,6.619,6.619.606.606,0,1,0,0-1.212Z" transform="translate(-102.934 -250.667)" fill="#86a6f4"/>
      </g>
    </g>
  </g>
</svg>
