<svg id="_001-qr-code" data-name="001-qr-code" xmlns="http://www.w3.org/2000/svg" width="25.043" height="25.043" viewBox="0 0 25.043 25.043">
  <path id="Path_37" data-name="Path 37" d="M374.261,7.043a.783.783,0,0,1-.783-.783V2.25a.686.686,0,0,0-.685-.685h-4.011a.783.783,0,0,1,0-1.565h4.011a2.253,2.253,0,0,1,2.25,2.25V6.261A.783.783,0,0,1,374.261,7.043Z" transform="translate(-350)" fill="#86a6f4"/>
  <path id="Path_38" data-name="Path 38" d="M.783,7.043A.783.783,0,0,1,0,6.261V2.25A2.253,2.253,0,0,1,2.25,0H6.261a.783.783,0,1,1,0,1.565H2.25a.686.686,0,0,0-.685.685V6.261A.783.783,0,0,1,.783,7.043Z" fill="#86a6f4"/>
  <path id="Path_39" data-name="Path 39" d="M6.261,375.043H2.25A2.253,2.253,0,0,1,0,372.793v-4.011a.783.783,0,0,1,1.565,0v4.011a.686.686,0,0,0,.685.685H6.261a.783.783,0,0,1,0,1.565Z" transform="translate(0 -350)" fill="#86a6f4"/>
  <path id="Path_40" data-name="Path 40" d="M372.793,375.043h-4.011a.783.783,0,0,1,0-1.565h4.011a.686.686,0,0,0,.685-.685v-4.011a.783.783,0,0,1,1.565,0v4.011A2.253,2.253,0,0,1,372.793,375.043Z" transform="translate(-350 -350)" fill="#86a6f4"/>
  <path id="Path_41" data-name="Path 41" d="M70.359,72.609H66.25A2.253,2.253,0,0,1,64,70.359V66.25A2.253,2.253,0,0,1,66.25,64h4.109a2.253,2.253,0,0,1,2.25,2.25v4.109A2.253,2.253,0,0,1,70.359,72.609ZM66.25,65.565a.686.686,0,0,0-.685.685v4.109a.686.686,0,0,0,.685.685h4.109a.686.686,0,0,0,.685-.685V66.25a.686.686,0,0,0-.685-.685Z" transform="translate(-60.87 -60.87)" fill="#86a6f4"/>
  <path id="Path_42" data-name="Path 42" d="M70.359,280.609H66.25a2.253,2.253,0,0,1-2.25-2.25V274.25A2.253,2.253,0,0,1,66.25,272h4.109a2.253,2.253,0,0,1,2.25,2.25v4.109A2.253,2.253,0,0,1,70.359,280.609Zm-4.109-7.043a.686.686,0,0,0-.685.685v4.109a.686.686,0,0,0,.685.685h4.109a.686.686,0,0,0,.685-.685V274.25a.686.686,0,0,0-.685-.685Z" transform="translate(-60.87 -258.696)" fill="#86a6f4"/>
  <path id="Path_43" data-name="Path 43" d="M278.359,72.609H274.25a2.253,2.253,0,0,1-2.25-2.25V66.25A2.253,2.253,0,0,1,274.25,64h4.109a2.253,2.253,0,0,1,2.25,2.25v4.109A2.253,2.253,0,0,1,278.359,72.609Zm-4.109-7.043a.686.686,0,0,0-.685.685v4.109a.686.686,0,0,0,.685.685h4.109a.686.686,0,0,0,.685-.685V66.25a.686.686,0,0,0-.685-.685Z" transform="translate(-258.696 -60.87)" fill="#86a6f4"/>
  <path id="Path_44" data-name="Path 44" d="M279.337,275.913h-1.859v-2.641A1.273,1.273,0,0,0,276.206,272h-2.935A1.273,1.273,0,0,0,272,273.272v2.935a1.273,1.273,0,0,0,1.272,1.272h2.641v1.859a1.273,1.273,0,0,0,1.272,1.272h2.152a1.273,1.273,0,0,0,1.272-1.272v-2.152A1.273,1.273,0,0,0,279.337,275.913Zm-5.772-2.348h2.348v2.348h-2.348Zm5.478,5.478h-1.565v-1.565h1.565Z" transform="translate(-258.696 -258.696)" fill="#86a6f4"/>
  <path id="Path_45" data-name="Path 45" d="M129.565,130.348h-.783a.783.783,0,0,1-.783-.783v-.783a.783.783,0,0,1,.783-.783h.783a.783.783,0,0,1,.783.783v.783A.783.783,0,0,1,129.565,130.348Z" transform="translate(-121.739 -121.739)" fill="#86a6f4"/>
  <path id="Path_46" data-name="Path 46" d="M337.565,130.348h-.783a.783.783,0,0,1-.783-.783v-.783a.783.783,0,0,1,.783-.783h.783a.783.783,0,0,1,.783.783v.783A.783.783,0,0,1,337.565,130.348Z" transform="translate(-319.565 -121.739)" fill="#86a6f4"/>
  <path id="Path_47" data-name="Path 47" d="M129.565,338.348h-.783a.783.783,0,0,1-.783-.783v-.783a.783.783,0,0,1,.783-.783h.783a.783.783,0,0,1,.783.783v.783A.783.783,0,0,1,129.565,338.348Z" transform="translate(-121.739 -319.565)" fill="#86a6f4"/>
</svg>
