<svg xmlns="http://www.w3.org/2000/svg" width="21.999" height="22" viewBox="0 0 21.999 22">
  <path id="_001-nfc" data-name="001-nfc" d="M21.361,14.932a.86.86,0,0,1-.848-1.006A18.308,18.308,0,0,0,20.78,11a18.053,18.053,0,0,0-2.912-9.672A.859.859,0,1,1,19.309.391a19.771,19.771,0,0,1,3.19,10.6v.017a20.015,20.015,0,0,1-.292,3.211A.86.86,0,0,1,21.361,14.932Zm-2.052,6.677a19.719,19.719,0,0,0,1.7-3.241.859.859,0,0,0-1.59-.654,17.989,17.989,0,0,1-1.552,2.958.859.859,0,1,0,1.441.937Zm-4.175-2.24a15.341,15.341,0,0,0,2.6-8.358q0-.011,0-.023a15.34,15.34,0,0,0-2.6-8.358.859.859,0,0,0-1.428.957A13.625,13.625,0,0,1,16.011,11a13.625,13.625,0,0,1-2.3,7.412.859.859,0,0,0,1.428.957Zm-3.784-3.587a1.487,1.487,0,0,0,.979-.907A10.525,10.525,0,0,0,13,10.983a10.616,10.616,0,0,0-1.932-5.878.859.859,0,1,0-1.41.984,8.9,8.9,0,0,1,1.623,4.928,8.756,8.756,0,0,1-.459,2.952L2.944,7.908a1.31,1.31,0,0,0-2.056.67A9.835,9.835,0,0,0,.5,11.3a8.133,8.133,0,0,0,1.212,3.928A.859.859,0,0,0,3.156,14.3,6.446,6.446,0,0,1,2.219,11.3,8.131,8.131,0,0,1,2.39,9.65l7.653,5.884a1.463,1.463,0,0,0,.895.307A1.485,1.485,0,0,0,11.349,15.783Zm0,0" transform="translate(-0.5 0)" fill="#86a6f4"/>
</svg>
