<svg id="_002-analytics" data-name="002-analytics" xmlns="http://www.w3.org/2000/svg" width="28.561" height="28.561" viewBox="0 0 28.561 28.561">
  <g id="Group_47" data-name="Group 47" transform="translate(0 27.371)">
    <g id="Group_46" data-name="Group 46">
      <path id="Path_74" data-name="Path 74" d="M27.966,490.667H.6a.6.6,0,1,0,0,1.19H27.966a.6.6,0,1,0,0-1.19Z" transform="translate(0 -490.667)" fill="#86a6f4"/>
    </g>
  </g>
  <g id="Group_49" data-name="Group 49" transform="translate(1.19 20.231)">
    <g id="Group_48" data-name="Group 48">
      <path id="Path_75" data-name="Path 75" d="M25.5,362.667h-3.57a.6.6,0,0,0-.6.6v7.14a.6.6,0,0,0,.6.595H25.5a.6.6,0,0,0,.6-.6v-7.14A.6.6,0,0,0,25.5,362.667Zm-.6,7.14h-2.38v-5.95H24.9v5.95Z" transform="translate(-21.333 -362.667)" fill="#86a6f4"/>
    </g>
  </g>
  <g id="Group_51" data-name="Group 51" transform="translate(8.33 14.281)">
    <g id="Group_50" data-name="Group 50">
      <path id="Path_76" data-name="Path 76" d="M153.5,256h-3.57a.6.6,0,0,0-.6.6v13.091a.6.6,0,0,0,.6.6h3.57a.6.6,0,0,0,.6-.6V256.6A.6.6,0,0,0,153.5,256Zm-.6,13.091h-2.38v-11.9h2.38Z" transform="translate(-149.333 -256)" fill="#86a6f4"/>
    </g>
  </g>
  <g id="Group_53" data-name="Group 53" transform="translate(15.471 16.661)">
    <g id="Group_52" data-name="Group 52">
      <path id="Path_77" data-name="Path 77" d="M281.5,298.667h-3.57a.6.6,0,0,0-.6.6v10.711a.6.6,0,0,0,.6.6h3.57a.6.6,0,0,0,.6-.6V299.262A.6.6,0,0,0,281.5,298.667Zm-.6,10.71h-2.38v-9.52h2.38Z" transform="translate(-277.333 -298.667)" fill="#86a6f4"/>
    </g>
  </g>
  <g id="Group_55" data-name="Group 55" transform="translate(22.611 9.52)">
    <g id="Group_54" data-name="Group 54">
      <path id="Path_78" data-name="Path 78" d="M409.5,170.667h-3.57a.6.6,0,0,0-.6.6v17.851a.6.6,0,0,0,.6.6h3.57a.6.6,0,0,0,.6-.6V171.262A.6.6,0,0,0,409.5,170.667Zm-.6,17.851h-2.38V171.857h2.38Z" transform="translate(-405.333 -170.667)" fill="#86a6f4"/>
    </g>
  </g>
  <g id="Group_57" data-name="Group 57" transform="translate(1.19 10.71)">
    <g id="Group_56" data-name="Group 56">
      <path id="Path_79" data-name="Path 79" d="M23.713,192a2.38,2.38,0,1,0,2.38,2.38A2.383,2.383,0,0,0,23.713,192Zm0,3.57a1.19,1.19,0,1,1,1.19-1.19A1.191,1.191,0,0,1,23.713,195.57Z" transform="translate(-21.333 -192)" fill="#86a6f4"/>
    </g>
  </g>
  <g id="Group_59" data-name="Group 59" transform="translate(8.33 4.76)">
    <g id="Group_58" data-name="Group 58">
      <path id="Path_80" data-name="Path 80" d="M151.713,85.333a2.38,2.38,0,1,0,2.38,2.38A2.383,2.383,0,0,0,151.713,85.333Zm0,3.57a1.19,1.19,0,1,1,1.19-1.19A1.191,1.191,0,0,1,151.713,88.9Z" transform="translate(-149.333 -85.333)" fill="#86a6f4"/>
    </g>
  </g>
  <g id="Group_61" data-name="Group 61" transform="translate(15.471 7.14)">
    <g id="Group_60" data-name="Group 60">
      <path id="Path_81" data-name="Path 81" d="M279.713,128a2.38,2.38,0,1,0,2.38,2.38A2.383,2.383,0,0,0,279.713,128Zm0,3.57a1.19,1.19,0,1,1,1.19-1.19A1.191,1.191,0,0,1,279.713,131.57Z" transform="translate(-277.333 -128)" fill="#86a6f4"/>
    </g>
  </g>
  <g id="Group_63" data-name="Group 63" transform="translate(22.611)">
    <g id="Group_62" data-name="Group 62">
      <path id="Path_82" data-name="Path 82" d="M407.713,0a2.38,2.38,0,1,0,2.38,2.38A2.382,2.382,0,0,0,407.713,0Zm0,3.57a1.19,1.19,0,1,1,1.19-1.19A1.191,1.191,0,0,1,407.713,3.57Z" transform="translate(-405.333 0)" fill="#86a6f4"/>
    </g>
  </g>
  <g id="Group_65" data-name="Group 65" transform="translate(18.518 3.046)">
    <g id="Group_64" data-name="Group 64">
      <path id="Path_83" data-name="Path 83" d="M337.6,54.782a.6.6,0,0,0-.841,0L332.137,59.4a.595.595,0,0,0,.841.841l4.617-4.617A.6.6,0,0,0,337.6,54.782Z" transform="translate(-331.963 -54.608)" fill="#86a6f4"/>
    </g>
  </g>
  <g id="Group_67" data-name="Group 67" transform="translate(11.832 7.033)">
    <g id="Group_66" data-name="Group 66">
      <path id="Path_84" data-name="Path 84" d="M216.688,127.192l-3.822-1.09a.6.6,0,0,0-.326,1.145l3.822,1.09a.6.6,0,0,0,.326-1.145Z" transform="translate(-212.108 -126.078)" fill="#86a6f4"/>
    </g>
  </g>
  <g id="Group_69" data-name="Group 69" transform="translate(4.236 7.658)">
    <g id="Group_68" data-name="Group 68">
      <path id="Path_85" data-name="Path 85" d="M81.481,137.5a.6.6,0,0,0-.835-.1l-4.487,3.577a.6.6,0,0,0,.371,1.06.6.6,0,0,0,.37-.129l4.487-3.577A.6.6,0,0,0,81.481,137.5Z" transform="translate(-75.935 -137.273)" fill="#86a6f4"/>
    </g>
  </g>
</svg>
