<svg xmlns="http://www.w3.org/2000/svg" width="25.809" height="25.81" viewBox="0 0 25.809 25.81">
  <path id="_003-layers" data-name="003-layers" d="M25.751,12,21.606,9.931l4.145-2.073a1.009,1.009,0,0,0,0-1.8L13.854.106a1.009,1.009,0,0,0-.9,0L1.055,6.055a1.009,1.009,0,0,0,0,1.8L5.2,9.931,1.055,12a1.009,1.009,0,0,0,0,1.8L5.2,15.88,1.055,17.952a1.009,1.009,0,0,0,0,1.8l11.9,5.949a1.009,1.009,0,0,0,.9,0l11.9-5.949a1.009,1.009,0,0,0,0-1.8L21.606,15.88l4.145-2.073A1.009,1.009,0,0,0,25.751,12ZM13.4,2.135l9.643,4.821L13.4,11.778,3.761,6.957Zm9.643,16.718L13.4,23.675,3.761,18.854l3.694-1.847,5.5,2.749a1.009,1.009,0,0,0,.9,0l5.5-2.749ZM13.4,17.726,3.761,12.905l3.694-1.847,5.5,2.749a1.009,1.009,0,0,0,.9,0l5.5-2.749,3.694,1.847Zm0,0" transform="translate(-0.499)" fill="#86a6f4"/>
</svg>
