<svg id="_004-megaphone" data-name="004-megaphone" xmlns="http://www.w3.org/2000/svg" width="23.941" height="24.913" viewBox="0 0 23.941 24.913">
  <g id="Group_230" data-name="Group 230" transform="translate(0 0)">
    <path id="Path_108" data-name="Path 108" d="M31.451,7.476h-.858V.486a.487.487,0,0,0-.806-.367L28.5,1.24a17.966,17.966,0,0,1-2.16,1.609,17.985,17.985,0,0,1-9.652,2.8H14.316a4.3,4.3,0,1,0,0,8.607h1.135V24.425a.487.487,0,0,0,.487.487h2.791a1.747,1.747,0,0,0,1.745-1.745V21.128h.737a1.749,1.749,0,0,0,0-3.5h-.737V14.66A18.009,18.009,0,0,1,28.5,18.67l1.289,1.121a.487.487,0,0,0,.806-.367v-6.99h.858a2.479,2.479,0,0,0,0-4.958ZM10.96,9.955a3.347,3.347,0,0,1,3.356-3.33h1.135v6.661H14.316a3.347,3.347,0,0,1-3.356-3.33ZM21.212,18.6a.776.776,0,0,1,0,1.552h-.737V18.6ZM19.5,23.167a.773.773,0,0,1-.772.772h-2.3v-9.68h.261a18.074,18.074,0,0,1,2.816.22ZM29.62,18.356l-.483-.42a18.94,18.94,0,0,0-2.051-1.551V12.4a.487.487,0,0,0-.973,0v3.388a18.957,18.957,0,0,0-9.427-2.5h-.261V6.625h.261a18.956,18.956,0,0,0,9.427-2.5V8a.487.487,0,0,0,.973,0V3.525a18.925,18.925,0,0,0,2.051-1.551l.483-.42Zm1.831-6.9h-.858V8.449h.858a1.506,1.506,0,0,1,0,3.012Z" transform="translate(-9.987 0.001)" fill="#86a6f4"/>
    <path id="Path_109" data-name="Path 109" d="M342.336,200.156a.486.486,0,1,0-.192.6.491.491,0,0,0,.192-.6Z" transform="translate(-325.274 -190.131)" fill="#86a6f4"/>
  </g>
</svg>
