<svg id="_005-information" data-name="005-information" xmlns="http://www.w3.org/2000/svg" width="21.766" height="21.766" viewBox="0 0 21.766 21.766">
  <g id="Group_232" data-name="Group 232">
    <g id="Group_231" data-name="Group 231">
      <circle id="Ellipse_8" data-name="Ellipse 8" cx="1.063" cy="1.063" r="1.063" transform="translate(9.82 15.028)" fill="#86a6f4"/>
      <path id="Path_110" data-name="Path 110" d="M10.883,0A10.883,10.883,0,1,0,21.766,10.883,10.877,10.877,0,0,0,10.883,0Zm0,20.066a9.183,9.183,0,1,1,9.183-9.183A9.178,9.178,0,0,1,10.883,20.066Z" fill="#86a6f4"/>
      <path id="Path_111" data-name="Path 111" d="M179.4,128.5a3.4,3.4,0,0,0-3.4,3.4.85.85,0,1,0,1.7,0,1.7,1.7,0,1,1,1.7,1.7.85.85,0,0,0-.85.85v2.126a.85.85,0,0,0,1.7,0v-1.383a3.4,3.4,0,0,0-.85-6.694Z" transform="translate(-168.518 -123.037)" fill="#86a6f4"/>
    </g>
  </g>
</svg>
