<svg xmlns="http://www.w3.org/2000/svg" width="22" height="22" viewBox="0 0 22 22">
  <g id="Group_71" data-name="Group 71" transform="translate(-491 -661)">
    <g id="Group_70" data-name="Group 70" transform="translate(-0.148 0.154)">
      <path id="XMLID_927_" d="M192.641,110.739a9.571,9.571,0,0,0-16.979,0,.606.606,0,0,0,0,.561,9.571,9.571,0,0,0,16.979,0A.606.606,0,0,0,192.641,110.739Zm-8.489,4.5a8.338,8.338,0,0,1-7.261-4.219,8.359,8.359,0,0,1,14.523,0A8.338,8.338,0,0,1,184.151,115.238Z" transform="translate(317.555 561.258)" fill="#fff"/>
      <ellipse id="XMLID_928_" cx="2.885" cy="2.885" rx="2.885" ry="2.885" transform="translate(498.821 669.392)" fill="#86a6f4"/>
    </g>
    <g id="Ellipse_2" data-name="Ellipse 2" transform="translate(491 661)" fill="none" stroke="#86a6f4" stroke-width="1">
      <circle cx="11" cy="11" r="11" stroke="none"/>
      <circle cx="11" cy="11" r="10.5" fill="none"/>
    </g>
  </g>
</svg>
