<svg width="24" height="25" viewBox="0 0 24 25" fill="none" xmlns="http://www.w3.org/2000/svg">
<rect width="24" height="25" fill="#E5E5E5"/>
<g id="Social UI Kit - Dark">
<rect width="1720" height="1720" transform="translate(-1118 -964)" fill="white"/>
<g id="Group 230">
<path id="Path 108" d="M21.4385 7.47602H20.5805V0.486023C20.5803 0.392737 20.5533 0.301467 20.5028 0.223069C20.4522 0.14467 20.3802 0.0824414 20.2953 0.0437837C20.2104 0.00512603 20.1162 -0.00833416 20.0239 0.00500397C19.9315 0.0183421 19.845 0.0579173 19.7745 0.119023L18.4875 1.24002C17.8088 1.82965 17.0867 2.36749 16.3275 2.84902C13.4416 4.68057 10.0935 5.65183 6.6755 5.64902H4.3035C3.16214 5.64902 2.06753 6.10243 1.26047 6.90949C0.453404 7.71655 0 8.81116 0 9.95252C0 11.0939 0.453404 12.1885 1.26047 12.9956C2.06753 13.8026 3.16214 14.256 4.3035 14.256H5.4385V24.425C5.4385 24.5542 5.48981 24.6781 5.58114 24.7694C5.67247 24.8607 5.79634 24.912 5.9255 24.912H8.7165C9.17914 24.9115 9.62268 24.7275 9.94982 24.4003C10.277 24.0732 10.461 23.6297 10.4615 23.167V21.128H11.1985C11.6626 21.128 12.1077 20.9436 12.4359 20.6155C12.7641 20.2873 12.9485 19.8422 12.9485 19.378C12.9485 18.9139 12.7641 18.4688 12.4359 18.1406C12.1077 17.8124 11.6626 17.628 11.1985 17.628H10.4615V14.66C13.4323 15.2982 16.1933 16.6777 18.4875 18.67L19.7765 19.791C19.847 19.8521 19.9335 19.8917 20.0259 19.905C20.1182 19.9184 20.2124 19.9049 20.2973 19.8663C20.3822 19.8276 20.4542 19.7654 20.5048 19.687C20.5553 19.6086 20.5823 19.5173 20.5825 19.424V12.434H21.4405C22.098 12.434 22.7285 12.1728 23.1934 11.7079C23.6583 11.243 23.9195 10.6125 23.9195 9.95502C23.9195 9.29755 23.6583 8.66701 23.1934 8.20211C22.7285 7.7372 22.098 7.47602 21.4405 7.47602H21.4385ZM0.9475 9.95502C0.951999 9.06873 1.30785 8.22041 1.93699 7.59614C2.56613 6.97187 3.4172 6.62263 4.3035 6.62502H5.4385V13.286H4.3035C3.4172 13.2884 2.56613 12.9392 1.93699 12.3149C1.30785 11.6906 0.951999 10.8423 0.9475 9.95602V9.95502ZM11.1995 18.6C11.4053 18.6 11.6027 18.6818 11.7482 18.8273C11.8937 18.9728 11.9755 19.1702 11.9755 19.376C11.9755 19.5818 11.8937 19.7792 11.7482 19.9247C11.6027 20.0703 11.4053 20.152 11.1995 20.152H10.4625V18.6H11.1995ZM9.4875 23.167C9.48724 23.3717 9.40581 23.5679 9.26109 23.7126C9.11637 23.8573 8.92017 23.9388 8.7155 23.939H6.4155V14.259H6.6765C7.61947 14.2588 8.56101 14.3323 9.4925 14.479L9.4875 23.167ZM19.6075 18.356L19.1245 17.936C18.4768 17.3732 17.7915 16.855 17.0735 16.385V12.4C17.0678 12.2748 17.0141 12.1566 16.9235 12.07C16.8329 11.9834 16.7123 11.9351 16.587 11.9351C16.4617 11.9351 16.3411 11.9834 16.2505 12.07C16.1599 12.1566 16.1062 12.2748 16.1005 12.4V15.788C13.23 14.1468 9.98009 13.2849 6.6735 13.288H6.4125V6.62502H6.6735C9.9801 6.62815 13.23 5.76629 16.1005 4.12502V8.00002C16.1062 8.12524 16.1599 8.24344 16.2505 8.33004C16.3411 8.41663 16.4617 8.46496 16.587 8.46496C16.7123 8.46496 16.8329 8.41663 16.9235 8.33004C17.0141 8.24344 17.0678 8.12524 17.0735 8.00002V3.52502C17.7915 3.05512 18.4768 2.53693 19.1245 1.97402L19.6075 1.55402V18.356ZM21.4385 11.456H20.5805V8.44902H21.4385C21.8379 8.44902 22.221 8.60769 22.5034 8.89012C22.7858 9.17255 22.9445 9.55561 22.9445 9.95502C22.9445 10.3544 22.7858 10.7375 22.5034 11.0199C22.221 11.3024 21.8379 11.461 21.4385 11.461V11.456Z" fill="#86A6F4"/>
<path id="Path 109" d="M17.0365 10.0241C16.9982 9.93237 16.9327 9.85455 16.8488 9.8012C16.7648 9.74785 16.6666 9.72153 16.5672 9.72579C16.4679 9.73005 16.3722 9.76468 16.2932 9.82502C16.2141 9.88536 16.1555 9.9685 16.1252 10.0632C16.0949 10.1579 16.0943 10.2597 16.1237 10.3547C16.153 10.4497 16.2108 10.5334 16.2892 10.5946C16.3676 10.6557 16.4629 10.6914 16.5622 10.6966C16.6616 10.7019 16.7601 10.6766 16.8446 10.6241C16.9418 10.5625 17.0144 10.4687 17.0495 10.359C17.0846 10.2493 17.08 10.1308 17.0365 10.0241V10.0241Z" fill="#86A6F4"/>
</g>
</g>
</svg>
