<svg xmlns="http://www.w3.org/2000/svg" width="24.895" height="24.895" viewBox="0 0 24.895 24.895">
  <g id="website_support" data-name="website support" transform="translate(-2 -2)">
    <path id="Path_100" data-name="Path 100" d="M25.651,2H3.245A1.249,1.249,0,0,0,2,3.245V18.6a1.249,1.249,0,0,0,1.245,1.245H7.564A.215.215,0,0,1,7.548,20L6.5,21.742a1.245,1.245,0,0,0,.191,1.523L8.12,24.692a1.245,1.245,0,0,0,1.523.191l1.739-1.046a.243.243,0,0,1,.216,0,.235.235,0,0,1,.141.154l.49,1.967a1.245,1.245,0,0,0,1.207.942H15.46a1.245,1.245,0,0,0,1.207-.942l.49-1.967a.243.243,0,0,1,.149-.158.24.24,0,0,1,.207.008l1.739,1.046a1.25,1.25,0,0,0,1.523-.191L22.2,23.265a1.245,1.245,0,0,0,.191-1.523L21.348,20a.237.237,0,0,1-.017-.162h4.319A1.249,1.249,0,0,0,26.9,18.6V3.245A1.249,1.249,0,0,0,25.651,2ZM23.576,17.95a.415.415,0,0,1-.315.4l-1.967.49a1.076,1.076,0,0,0-.722.639,1.064,1.064,0,0,0,.066.95l1.041,1.739a.409.409,0,0,1-.062.506l-1.431,1.431a.409.409,0,0,1-.506.062l-1.739-1.041a1.085,1.085,0,0,0-1.589.656l-.49,1.967a.415.415,0,0,1-.4.315H13.435a.415.415,0,0,1-.4-.315l-.49-1.967a1.076,1.076,0,0,0-.639-.722,1.1,1.1,0,0,0-.415-.083,1.022,1.022,0,0,0-.535.149L9.216,24.169a.409.409,0,0,1-.506-.062L7.278,22.676a.409.409,0,0,1-.062-.506l1.041-1.739A1.085,1.085,0,0,0,7.6,18.842l-1.967-.49a.415.415,0,0,1-.315-.4V15.925a.415.415,0,0,1,.315-.4l1.967-.49a1.076,1.076,0,0,0,.722-.639,1.064,1.064,0,0,0-.066-.95L7.216,11.705a.409.409,0,0,1,.062-.506L8.709,9.767a.409.409,0,0,1,.506-.062l1.739,1.041a1.085,1.085,0,0,0,1.589-.656l.49-1.967a.415.415,0,0,1,.4-.315H15.46a.415.415,0,0,1,.4.315l.49,1.967a1.076,1.076,0,0,0,.639.722,1.064,1.064,0,0,0,.95-.066L19.68,9.705a.415.415,0,0,1,.506.062L21.618,11.2a.409.409,0,0,1,.062.506l-1.041,1.739a1.085,1.085,0,0,0,.656,1.589l1.967.49a.415.415,0,0,1,.315.4Zm2.49.647a.415.415,0,0,1-.415.415H23.8a1.241,1.241,0,0,0,.6-1.062V15.925a1.245,1.245,0,0,0-.942-1.207l-1.967-.49a.243.243,0,0,1-.141-.1c0-.012-.012-.033-.017-.046a.24.24,0,0,1,.008-.207l1.046-1.739A1.245,1.245,0,0,0,22.2,10.61L20.775,9.182a1.245,1.245,0,0,0-1.523-.191l-1.739,1.046a.243.243,0,0,1-.216,0,.235.235,0,0,1-.141-.154l-.49-1.967a1.245,1.245,0,0,0-1.207-.942H13.435a1.245,1.245,0,0,0-1.207.942l-.49,1.967a.243.243,0,0,1-.149.158.24.24,0,0,1-.207-.008L9.643,8.991a1.25,1.25,0,0,0-1.523.191L6.693,10.61A1.245,1.245,0,0,0,6.5,12.132l1.046,1.739a.243.243,0,0,1,0,.216.235.235,0,0,1-.154.141l-1.967.49a1.245,1.245,0,0,0-.942,1.207V17.95a1.241,1.241,0,0,0,.6,1.062H3.245A.415.415,0,0,1,2.83,18.6V6.149H26.066Zm0-13.278H2.83V3.245a.415.415,0,0,1,.415-.415H25.651a.415.415,0,0,1,.415.415Z" fill="#86a6f4"/>
    <path id="Path_101" data-name="Path 101" d="M6,6h.83v.83H6Z" transform="translate(-2.34 -2.34)" fill="#86a6f4"/>
    <path id="Path_102" data-name="Path 102" d="M10,6h.83v.83H10Z" transform="translate(-4.681 -2.34)" fill="#86a6f4"/>
    <path id="Path_103" data-name="Path 103" d="M14,6h.83v.83H14Z" transform="translate(-7.021 -2.34)" fill="#86a6f4"/>
    <path id="Path_104" data-name="Path 104" d="M24.979,26a4.979,4.979,0,1,0,4.979,4.979A4.979,4.979,0,0,0,24.979,26Zm0,9.128a4.149,4.149,0,1,1,4.149-4.149A4.149,4.149,0,0,1,24.979,35.128Z" transform="translate(-10.531 -14.042)" fill="#86a6f4"/>
    <path id="Path_105" data-name="Path 105" d="M31,37h.83v.83H31Z" transform="translate(-16.967 -20.478)" fill="#86a6f4"/>
    <path id="Path_106" data-name="Path 106" d="M35,37h.83v.83H35Z" transform="translate(-19.308 -20.478)" fill="#86a6f4"/>
    <path id="Path_107" data-name="Path 107" d="M27,37h.83v.83H27Z" transform="translate(-14.627 -20.478)" fill="#86a6f4"/>
  </g>
</svg>
